HIERARCHY
ROOT root
{
	OFFSET	0	13.1	24.9
	CHANNELS 6  Xposition Yposition Zposition Xrotation Yrotation Zrotation
	JOINT spine_1
	{
		OFFSET	0	9.99999	0
		CHANNELS 3  Xrotation Yrotation Zrotation
		JOINT spine_2
		{
			OFFSET	0	112	-10
			CHANNELS 3  Xrotation Yrotation Zrotation
			JOINT spine_3
			{
				OFFSET	0	206.5	19.3
				CHANNELS 3  Xrotation Yrotation Zrotation
				JOINT spine_4
				{
					OFFSET	0	110.4	14.6
					CHANNELS 3  Xrotation Yrotation Zrotation
					JOINT neck_1
					{
						OFFSET	0	71.8	-50.3
						CHANNELS 3  Xrotation Yrotation Zrotation
						JOINT neck_2
						{
							OFFSET	0	86.2	-25.8
							CHANNELS 3  Xrotation Yrotation Zrotation
							JOINT head_ee
							{
								OFFSET	0	179.8	-8.7
								CHANNELS 3  Xrotation Yrotation Zrotation
								End Site
								{
									OFFSET	1	0	0
								}
							}
						}
					}
					JOINT left_clavicle
					{
						OFFSET	-43.2	22.4	-70.8
						CHANNELS 3  Xrotation Yrotation Zrotation
						JOINT left_shoulder
						{
							OFFSET	-93.9	-5.79999	48.7
							CHANNELS 3  Xrotation Yrotation Zrotation
							JOINT left_elbow
							{
								OFFSET	-291.4	-30.8	15.2
								CHANNELS 3  Xrotation Yrotation Zrotation
								JOINT left_lowarm_twist
								{
									OFFSET	-110.7	-3.89999	13.6
									CHANNELS 3  Xrotation Yrotation Zrotation
									JOINT left_hand
									{
										OFFSET	-110.7	-3.89999	13.6
										CHANNELS 3  Xrotation Yrotation Zrotation
										JOINT left_ee
										{
											OFFSET	-80.8	-5.10001	12.1
											CHANNELS 3  Xrotation Yrotation Zrotation
											End Site
											{
												OFFSET	1	0	0
											}
										}
									}
								}
							}
						}
					}
					JOINT right_clavicle
					{
						OFFSET	43.2	22.4	-70.8
						CHANNELS 3  Xrotation Yrotation Zrotation
						JOINT right_shoulder
						{
							OFFSET	93.9	-5.79999	48.7
							CHANNELS 3  Xrotation Yrotation Zrotation
							JOINT right_elbow
							{
								OFFSET	291.4	-30.8	15.2
								CHANNELS 3  Xrotation Yrotation Zrotation
								JOINT right_lowarm_twist
								{
									OFFSET	110.7	-3.89999	13.6
									CHANNELS 3  Xrotation Yrotation Zrotation
									JOINT right_hand
									{
										OFFSET	110.7	-3.89999	13.6
										CHANNELS 3  Xrotation Yrotation Zrotation
										JOINT right_ee
										{
											OFFSET	80.8	-5.10001	12.1
											CHANNELS 3  Xrotation Yrotation Zrotation
											End Site
											{
												OFFSET	1	0	0
											}
										}
									}
								}
							}
						}
					}
				}
			}
		}
	}
	JOINT left_hip
	{
		OFFSET	-82.8	-127.5	0.300001
		CHANNELS 3  Xrotation Yrotation Zrotation
		JOINT left_knee
		{
			OFFSET	-28.2	-396.7	2.2
			CHANNELS 3  Xrotation Yrotation Zrotation
			JOINT left_ankle
			{
				OFFSET	-11.7	-411.3	35.4
				CHANNELS 3  Xrotation Yrotation Zrotation
				JOINT left_toes
				{
					OFFSET	0	-60	-88.6
					CHANNELS 3  Xrotation Yrotation Zrotation
					JOINT left_foot_ee
					{
						OFFSET	-22.5	-16.5	-42.2
						CHANNELS 3  Xrotation Yrotation Zrotation
						End Site
						{
							OFFSET	1	0	0
						}
					}
				}
			}
		}
	}
	JOINT right_hip
	{
		OFFSET	82.8	-127.5	0.300001
		CHANNELS 3  Xrotation Yrotation Zrotation
		JOINT right_knee
		{
			OFFSET	28.2	-396.7	2.2
			CHANNELS 3  Xrotation Yrotation Zrotation
			JOINT right_ankle
			{
				OFFSET	11.7	-411.3	35.4
				CHANNELS 3  Xrotation Yrotation Zrotation
				JOINT right_toes
				{
					OFFSET	0	-60	-88.6
					CHANNELS 3  Xrotation Yrotation Zrotation
					JOINT right_foot_ee
					{
						OFFSET	22.5	-16.5	-42.2
						CHANNELS 3  Xrotation Yrotation Zrotation
						End Site
						{
							OFFSET	1	0	0
						}
					}
				}
			}
		}
	}
}
MOTION
Frames: 16
Frame Time: 0.02
2053.38 702.574 -1183.43 -15.6948 55.005 8.99903 3.23492 0.00141303 0.164385 3.23494 -0.00905005 0.164142 3.23491 -0.0343294 0.160767 3.23487 -0.0085085 0.164171 -4.22307 18.4883 3.53297 -3.91404 31.2869 6.57936 -0.0 0.0 -0.0 6.52 4.75001 12.6349 -14.8323 -19.1985 52.4503 2.48585 -50.9128 1.18351 46.0177 -0.69869 -5.6811 1.95837 -3.49268 11.7793 -0.0 0.0 -0.0 10.4763 -6.45516 -20.1424 -32.935 13.4533 -53.8992 0.361873 10.1632 -0.0321792 46.9306 0.757936 5.78181 -0.553612 -10.079 -0.627437 0.0 0.0 0.0 -9.78051 21.6399 8.60289 -16.9054 0.319645 2.56522 32.2055 -3.76143 -4.17802 33.0121 -0.0 -0.0 -0.0 0.0 -0.0 45.6058 37.7201 -10.3365 -14.533 -0.320691 -2.20124 22.9797 -3.58316 3.09816 34.22 -0.0 -0.0 0.0 0.0 0.0 
2029.28 700.379 -1197.67 -14.3223 54.7145 7.68801 3.29476 0.00719309 0.259237 3.2948 -0.00931736 0.259169 3.29474 -0.0490259 0.254661 3.29465 -0.00819187 0.259207 -3.87944 18.6761 4.77796 -3.53329 30.6042 7.79264 -0.0 0.0 -0.0 6.28447 5.62449 12.1837 -16.2395 -18.3393 52.3802 2.24421 -48.0218 0.999801 42.5867 -0.490601 -5.2946 2.42594 -2.87833 15.269 -0.0 0.0 -0.0 10.4095 -6.48068 -20.0088 -32.928 13.5684 -53.9319 0.450806 12.5887 -0.0497247 51.0306 1.04358 6.22208 0.0907909 -6.23348 -3.1954 0.0 0.0 0.0 -12.7296 18.9448 9.47087 -14.3504 0.320147 2.17323 26.2609 0.123869 -3.49718 37.5732 -0.0 -0.0 -0.0 0.0 -0.0 45.2828 37.6321 -11.9935 -18.8711 -0.307364 -2.86654 14.5494 -2.00821 2.04302 34.328 -0.0 -0.0 0.0 0.0 0.0 
2004.84 701.745 -1214.53 -12.8051 54.7069 6.57186 3.2756 0.235147 0.186469 3.27559 0.222805 0.201054 3.27638 0.189197 0.232958 3.27637 0.223613 0.200154 -2.99371 18.3898 3.47244 -2.56982 30.8524 6.19337 -0.0 0.0 -0.0 6.2877 5.64165 12.1896 -19.2089 -17.795 53.4122 2.13475 -46.5947 0.919339 42.3482 -0.477006 -5.26729 2.5604 -2.7966 16.2424 -0.0 0.0 -0.0 10.5553 -5.0617 -20.4308 -32.3432 13.9856 -55.6596 0.421682 11.799 -0.043573 50.6598 1.01645 6.18311 -0.0701156 -6.60963 -2.29922 0.0 0.0 0.0 -12.652 18.5354 9.02502 -17.6793 0.316044 2.68389 29.4784 2.18399 -3.84139 39.443 -0.0 -0.0 -0.0 0.0 -0.0 44.2128 38.2704 -10.858 -18.1456 -0.3131 -2.75538 15.73 -3.27275 2.19387 34.2386 -0.0 -0.0 0.0 0.0 0.0 
1976.73 710.826 -1225.03 -12.9607 54.2921 5.74754 3.06143 0.402101 0.395113 3.06144 0.376144 0.419899 3.06422 0.305272 0.473928 3.0641 0.376288 0.41977 -2.34298 17.6014 2.13433 -1.87579 30.2909 4.53982 -0.0 0.0 -0.0 6.12607 6.04561 11.8852 -21.4539 -17.3963 54.3008 2.07921 -45.8406 0.879239 42.2422 -0.470999 -5.25513 2.48766 -2.80074 15.7318 -0.0 0.0 -0.0 10.6493 -3.83208 -20.7276 -31.7458 14.642 -56.5043 0.424963 11.8882 -0.0442465 50.0918 0.975389 6.12307 -0.251967 -5.52222 -0.656566 0.0 0.0 0.0 -11.1569 18.4743 8.29484 -19.3866 0.302432 2.94549 31.8104 4.79331 -4.0793 39.9713 -0.0 -0.0 -0.0 0.0 -0.0 43.828 40.5178 -10.6791 -23.1088 -0.245783 -3.51372 20.6701 -4.58176 2.81605 35.3434 -0.0 -0.0 0.0 0.0 0.0 
1949.64 716.548 -1241.13 -13.0045 54.6045 5.94447 2.9603 0.50639 0.535269 2.96034 0.471303 0.566406 2.96503 0.375066 0.634245 2.96477 0.470525 0.567053 -1.91783 17.0331 1.21382 -1.41872 29.8804 3.40083 -0.0 0.0 -0.0 6.15811 6.49064 11.9405 -23.4414 -17.1746 55.619 2.00796 -44.8422 0.828556 42.0793 -0.461809 -5.23642 2.41813 -2.702 15.2874 -0.0 0.0 -0.0 10.8707 -2.98446 -21.2491 -30.7617 15.3914 -57.3957 0.43379 12.1279 -0.046083 49.6914 0.946808 6.08051 -0.372718 -4.76576 0.45552 0.0 0.0 0.0 -10.2213 18.3778 7.93811 -21.0054 0.282333 3.19306 33.5333 6.68075 -4.25439 40.2849 -0.0 -0.0 -0.0 0.0 -0.0 43.6648 41.858 -11.5213 -26.6923 -0.156481 -4.05632 24.148 -5.5435 3.23205 36.117 -0.0 -0.0 0.0 0.0 0.0 
1926.56 724.958 -1248.78 -11.2022 54.7858 3.80171 2.89116 0.536904 0.642612 2.89125 0.494925 0.675473 2.89711 0.380136 0.746129 2.89667 0.4932 0.676734 -2.35054 16.3503 0.837772 -1.9187 29.0164 3.02789 -0.0 0.0 -0.0 6.15599 7.22465 11.9283 -25.3732 -16.3843 57.0282 1.7818 -41.4295 0.673858 42.0008 -0.457402 -5.2274 2.2539 -2.32275 14.3013 -0.0 0.0 -0.0 10.9328 -2.15451 -21.4436 -30.3832 16.6746 -57.9277 0.468027 13.0534 -0.0535462 49.1697 0.910012 6.02476 -0.448993 -4.44992 1.09168 0.0 0.0 0.0 -9.2212 18.117 8.58531 -22.4268 0.258922 3.40991 34.5124 8.5626 -4.3565 40.0349 -0.0 -0.0 -0.0 0.0 -0.0 40.7153 42.769 -12.2805 -30.0595 -0.0417841 -4.56028 26.5273 -6.88095 3.50577 36.849 -0.0 -0.0 0.0 0.0 0.0 
1900.49 714.595 -1260.2 -8.38607 54.9305 0.511906 2.82127 0.566553 0.722354 2.82141 0.519441 0.75694 2.8283 0.390271 0.83094 2.82771 0.516601 0.758881 -2.66424 15.7968 0.612895 -2.28231 28.239 2.7964 -0.0 0.0 -0.0 5.4651 7.6053 10.6671 -27.4522 -15.6131 57.8652 1.59752 -38.354 0.555627 42.8706 -0.506933 -5.32704 2.10263 -1.49346 13.5929 -0.0 0.0 -0.0 11.0198 -0.673586 -21.7339 -28.7594 18.1394 -57.6501 0.450755 12.5873 -0.0497136 48.8076 0.884774 5.98587 -0.606157 -4.55811 2.0795 0.0 0.0 0.0 -9.01228 15.5624 8.40175 -28.7141 0.0911683 4.35972 35.4009 10.6339 -4.45476 39.9589 -0.0 -0.0 -0.0 0.0 -0.0 38.8685 43.7036 -13.1209 -32.0221 0.0386832 -4.85071 28.0921 -8.17716 3.68259 36.6911 -0.0 -0.0 0.0 0.0 0.0 
1878.18 704.769 -1273.02 -5.8464 52.9811 -1.08068 2.73236 0.558049 0.740944 2.73252 0.509771 0.77495 2.73945 0.376503 0.847735 2.7388 0.505658 0.77764 -4.96747 15.5898 1.50861 -4.79972 27.591 4.2261 -0.0 0.0 -0.0 4.98036 7.88962 9.79334 -26.6962 -14.6824 58.7697 1.2519 -31.8039 0.356672 44.0319 -0.575418 -5.4589 1.71227 -0.339672 11.3799 -0.0 0.0 -0.0 11.1575 0.0168622 -22.0703 -28.7128 21.5311 -57.7056 0.456867 12.7525 -0.0510542 48.0181 0.830611 5.90054 -0.477952 -3.94906 1.49675 0.0 0.0 0.0 -8.35599 13.7994 7.06151 -34.3911 -0.149013 5.19741 36.1563 13.3299 -4.55216 39.6113 -0.0 -0.0 -0.0 0.0 -0.0 36.7998 43.8453 -14.5525 -33.487 0.105211 -5.06562 33.4732 -7.24542 4.24925 36.3888 -0.0 -0.0 0.0 0.0 0.0 
1865.3 703.831 -1291.78 -4.32627 51.5126 -0.966813 2.75402 0.37422 0.631595 2.75418 0.333273 0.654127 2.75798 0.22229 0.69967 2.75745 0.329998 0.655785 -6.62705 14.3566 1.23848 -6.60218 25.7665 4.10094 -0.0 0.0 -0.0 4.57831 8.1824 9.07639 -26.5951 -13.9672 59.6804 0.938975 -24.9447 0.207694 45.3343 -0.655397 -5.60511 1.37382 1.51435 9.82334 -0.0 0.0 -0.0 11.5101 1.40376 -22.9095 -27.6271 25.6597 -58.3512 0.513869 14.2818 -0.064379 47.6613 0.806518 5.86174 -0.532292 -3.52205 2.03877 0.0 0.0 0.0 -6.8967 9.50311 5.94005 -38.2609 -0.359852 5.75328 35.7015 17.1175 -4.55892 39.0212 -0.0 -0.0 -0.0 0.0 -0.0 35.1272 44.2594 -17.5278 -32.2456 0.0484775 -4.88361 38.7979 -6.99624 4.75476 35.4774 -0.0 -0.0 0.0 0.0 0.0 
1846.53 712.832 -1291.21 -5.99433 57.4197 -2.65742 2.76169 0.507505 1.81616 2.76344 0.390929 1.84476 2.77569 0.0858985 1.88376 2.77094 0.382274 1.84657 -6.41589 13.4434 0.494688 -6.37794 24.5735 3.12642 -0.0 0.0 -0.0 6.33853 2.46368 12.2991 -31.8489 -15.6866 57.7656 0.798405 -21.579 0.152155 58.929 -1.67951 -7.00825 0.698328 4.53969 6.50904 -0.0 0.0 -0.0 11.769 6.09265 -23.6925 -26.2654 22.7094 -61.1956 0.619977 17.0728 -0.0930596 26.8176 -0.1537 3.39117 -1.15737 -2.73652 6.53004 0.0 0.0 0.0 -1.05762 -4.19856 11.7354 -40.55 -0.502129 6.0751 38.2127 -23.1149 -5.33167 40.3675 -0.0 -0.0 -0.0 0.0 -0.0 22.7503 27.0337 -1.10001 -23.3495 -0.240849 -3.55033 39.0941 -1.71022 4.78672 28.5287 -0.0 -0.0 0.0 0.0 0.0 
1828.78 726.521 -1300.66 -3.73079 57.4057 -4.20402 2.61706 0.55082 1.99598 2.61918 0.422721 2.02697 2.63382 0.0825469 2.06892 2.62808 0.40819 2.02995 -6.68503 13.0669 0.499275 -6.66604 23.9039 3.11131 -0.0 0.0 -0.0 5.90575 2.69152 11.4682 -33.7464 -15.2054 58.5925 0.738292 -20.0889 0.130773 59.0457 -1.68971 -7.0192 0.629405 5.55952 6.4602 -0.0 0.0 -0.0 11.7618 6.05883 -23.6756 -24.7122 23.4965 -61.1796 0.702496 19.1877 -0.118743 26.735 -0.155672 3.3808 -1.3558 -3.97837 7.2912 0.0 0.0 0.0 0.70035 -6.53841 10.7496 -42.0308 -0.600994 6.2802 38.2631 -22.1933 -5.29184 40.3673 -0.0 -0.0 -0.0 0.0 -0.0 20.6319 26.9905 -1.30837 -24.5963 -0.212837 -3.73962 39.1502 -1.80244 4.79121 28.12 -0.0 -0.0 0.0 0.0 0.0 
1808.2 723.72 -1310.82 -2.07104 58.1187 -6.05875 2.43287 0.586952 2.15624 2.43534 0.448589 2.1892 2.45224 0.0742351 2.23343 2.44554 0.425946 2.19371 -7.50743 12.7829 0.647212 -7.53912 23.3695 3.36717 -0.0 0.0 -0.0 5.58045 2.98366 10.8497 -36.2981 -14.5357 59.0005 0.717879 -19.5762 0.123847 59.1126 -1.69556 -7.02547 0.577883 6.27386 6.40513 -0.0 0.0 -0.0 11.7608 6.1005 -23.6746 -22.3088 24.4527 -60.81 0.77593 21.0253 -0.14399 26.7332 -0.155717 3.38057 -1.47837 -4.61241 7.81609 0.0 0.0 0.0 3.01202 -8.06665 9.42233 -43.0612 -0.672918 6.42142 37.5345 -21.5793 -5.19315 40.1329 -0.0 -0.0 -0.0 0.0 -0.0 19.0426 27.095 -2.70356 -25.7073 -0.184408 -3.90774 39.081 -1.87428 4.78478 27.7214 -0.0 -0.0 0.0 0.0 0.0 
1791.95 741.09 -1320.23 -2.6806 58.7553 -5.0145 2.61247 0.607747 2.26103 2.6152 0.46268 2.2951 2.63332 0.0777334 2.33995 2.62595 0.446211 2.29835 -8.22797 12.7212 1.01038 -8.3011 23.0852 3.85785 -0.0 0.0 -0.0 5.36492 3.30346 10.4447 -38.2035 -14.1864 59.7422 0.683807 -18.7132 0.112673 59.3603 -1.7173 -7.0486 0.285369 6.16139 4.44001 -0.0 0.0 -0.0 11.7088 5.36039 -23.5355 -20.3088 25.4191 -60.9203 0.879564 23.543 -0.183297 26.0408 -0.17166 3.29356 -1.41798 -3.62232 7.86726 0.0 0.0 0.0 6.73404 -8.89022 7.4385 -44.721 -0.794095 6.64615 36.5847 -21.0333 -5.07556 39.7716 -0.0 -0.0 -0.0 0.0 -0.0 10.8027 29.208 -1.18107 -21.1239 -0.280586 -3.21116 40.1987 -3.92947 4.87571 27.795 -0.0 -0.0 0.0 0.0 0.0 
1776.3 739.217 -1330.65 0.548544 59.8285 -7.29186 2.25502 0.378035 2.24777 2.2578 0.234275 2.26726 2.26683 -0.157686 2.27386 2.25967 0.203313 2.27024 -8.73333 12.9862 1.53232 -8.83628 23.2831 4.53514 -0.0 0.0 -0.0 5.14026 3.51988 10.0233 -39.5613 -14.2253 59.7196 0.65754 -18.0419 0.104391 60.0114 -1.77495 -7.10899 -0.111115 7.33469 2.33231 -0.0 0.0 -0.0 11.6179 4.58082 -23.3062 -19.9758 25.7912 -60.8021 0.942931 25.0369 -0.209366 24.6978 -0.199581 3.12429 -1.08776 -0.403467 7.10431 0.0 0.0 0.0 9.14298 -9.1866 6.48524 -46.6282 -0.94135 6.9 36.31 -21.1272 -5.05228 38.8622 -0.0 -0.0 -0.0 0.0 -0.0 6.16315 31.9809 -0.187667 -13.872 -0.318299 -2.09985 34.545 -9.50961 4.36399 25.2397 -0.0 -0.0 0.0 0.0 0.0 
1762.63 743.144 -1340.74 -0.480211 61.2018 -5.83053 2.43282 0.27804 1.92985 2.43488 0.154699 1.94362 2.43983 -0.174787 1.94192 2.43459 0.134037 1.94516 -9.07006 12.6921 0.739136 -9.19639 23.315 3.75856 -0.0 0.0 -0.0 4.95276 3.60395 9.67125 -40.5004 -14.6772 59.5838 0.68035 -18.6252 0.111567 60.3855 -1.80836 -7.14337 -0.462298 8.2609 0.443525 -0.0 0.0 -0.0 11.6294 4.21416 -23.316 -18.6173 26.5536 -60.1016 1.0117 26.6178 -0.239327 23.825 -0.215595 3.01395 -0.832912 2.19828 6.53282 0.0 0.0 0.0 14.5955 -8.63032 7.27513 -46.7923 -0.95442 6.92162 35.5021 -21.6029 -4.99137 37.7388 -0.0 -0.0 -0.0 0.0 -0.0 1.6172 33.6967 0.206792 -8.2243 -0.250239 -1.23629 30.9801 -13.2582 4.02372 23.5569 -0.0 -0.0 0.0 0.0 0.0 
1746.47 737.789 -1345.74 -1.6102 63.0273 -4.96501 2.48883 0.206252 1.70765 2.49045 0.0971878 1.71731 2.49309 -0.191791 1.70933 2.48902 0.0805327 1.71817 -10.4583 12.3242 0.866532 -10.6573 22.6811 4.07286 -0.0 0.0 -0.0 4.80244 4.06187 9.39964 -41.1638 -14.9921 59.485 0.696459 -19.0347 0.116766 60.4795 -1.81681 -7.15199 -0.726531 9.16311 -0.874486 -0.0 0.0 -0.0 11.4449 3.36202 -22.8759 -18.0827 27.0119 -59.2702 1.05811 27.661 -0.260502 22.9234 -0.230372 2.89972 -0.608759 4.75836 6.12876 0.0 0.0 0.0 17.0428 -8.26832 5.82848 -46.9368 -0.965976 6.94062 35.599 -23.1275 -5.0715 37.5049 -0.0 -0.0 -0.0 0.0 -0.0 -1.79878 34.8109 1.77805 -4.43163 -0.156927 -0.661849 28.5225 -16.7223 3.79031 22.1956 -0.0 -0.0 0.0 0.0 0.0 
